PathFileType	4	(X/Y/Z)	C:\Users\Basilio\Documents\Thesis Gigler\squatting_fais\c3dfiles\040\SJ_pre5\markers_experimental.trc
DataRate	CameraRate	NumFrames	NumMarkers	Units	OrigDataRate	OrigDataStartFrame	OrigNumFrames
200.000000	200.000000	4	62	mm	200.000000	728	1165
Frame#	Time	FHD			LBHD			RBHD			C7			T10			CLAV			LSHO			LUUPA			LMUPA			LDUPA			LLEP			LMEP			LRAD			LUL			LRFIN			RSHO			RUPA1			RMUPA			RDUPA			RLEP			RMEP			RRAD			RUL			RUFIN			LASI			RASI			USACR			LSACR			RSACR			LTHI1			LTHI2			LTHI3			LTHI4			LLFC			LMFC			LTIB1			LTIB2			LTIB3			LTIB4			LLMAL			LMMAL			LHEE			LMT1			LMT2			LMT5			RTHI			RTHI2			RTHI3			RTHI4			RLFC			RMFC			RTIB1			RTIB2			RTIB3			RTIB4			RLMAL			RMMAL			RHEE			RMT1			RMT2			RMT5			*61			
		X1	Y1	Z1	X2	Y2	Z2	X3	Y3	Z3	X4	Y4	Z4	X5	Y5	Z5	X6	Y6	Z6	X7	Y7	Z7	X8	Y8	Z8	X9	Y9	Z9	X10	Y10	Z10	X11	Y11	Z11	X12	Y12	Z12	X13	Y13	Z13	X14	Y14	Z14	X15	Y15	Z15	X16	Y16	Z16	X17	Y17	Z17	X18	Y18	Z18	X19	Y19	Z19	X20	Y20	Z20	X21	Y21	Z21	X22	Y22	Z22	X23	Y23	Z23	X24	Y24	Z24	X25	Y25	Z25	X26	Y26	Z26	X27	Y27	Z27	X28	Y28	Z28	X29	Y29	Z29	X30	Y30	Z30	X31	Y31	Z31	X32	Y32	Z32	X33	Y33	Z33	X34	Y34	Z34	X35	Y35	Z35	X36	Y36	Z36	X37	Y37	Z37	X38	Y38	Z38	X39	Y39	Z39	X40	Y40	Z40	X41	Y41	Z41	X42	Y42	Z42	X43	Y43	Z43	X44	Y44	Z44	X45	Y45	Z45	X46	Y46	Z46	X47	Y47	Z47	X48	Y48	Z48	X49	Y49	Z49	X50	Y50	Z50	X51	Y51	Z51	X52	Y52	Z52	X53	Y53	Z53	X54	Y54	Z54	X55	Y55	Z55	X56	Y56	Z56	X57	Y57	Z57	X58	Y58	Z58	X59	Y59	Z59	X60	Y60	Z60	X61	Y61	Z61	X62	Y62	Z62	

729	3.64	-162.1640625	1871.224731445313	-897.0007934570315	-273.9579772949219	1794.2275390625	-937.935974121094	-323.0624084472657	1752.760009765625	-805.0503540039065	-310.7348937988282	1661.44873046875	-864.2661743164065	-371.1528320312501	1338.244995117188	-838.6247558593752	-186.9766082763672	1594.492797851563	-844.101257324219	-171.6045989990235	1647.066772460938	-1008.565795898438	-181.9940948486328	1502.154907226563	-1169.527954101563	-186.3006134033203	1455.476928710938	-1152.397094726563	-199.7049407958985	1448.229125976563	-1210.392700195313	-223.4214935302735	1401.470825195313	-1255.094970703125	-298.1954040527344	1425.038940429688	-1249.5986328125	-361.1939086914063	1215.713989257813	-1066.512329101563	-309.7256774902344	1171.61767578125	-1098.895874023438	-318.0314941406251	1214.343994140625	-1008.522827148438	-232.1060791015626	1649.163940429688	-684.1984252929689	-363.8489685058594	1597.420043945313	-542.4326782226564	-348.8203430175782	1555.778442382813	-520.4223632812501	-401.6492614746095	1564.650146484375	-492.575897216797	-433.3229064941407	1512.6435546875	-449.1854858398439	-496.2145996093751	1499.213500976563	-508.5382080078126	-322.8475646972657	1340.845703125	-656.7086181640626	-293.3103332519532	1320.958740234375	-589.4655761718751	-285.5624084472657	1256.363525390625	-686.1241455078126	-225.6734313964844	1155.383911132813	-931.5222167968752	-234.3403015136719	1150.609497070313	-705.9946289062501	-400.3985595703126	1202.810791015625	-822.6926269531252	-411.7263183593751	1177.147094726563	-852.2800292968752	-413.4905090332032	1172.96337890625	-797.5220336914065	-367.1312866210938	915.567077636719	-1041.977294921875	-329.4104919433594	842.558044433594	-1063.140502929688	-284.5421142578126	846.7047119140627	-1067.102783203125	-353.1038208007813	788.1834716796877	-1062.526611328125	-343.5929870605469	654.8879394531251	-1079.659301757813	-326.3161010742188	603.7897338867189	-958.1308593750002	-287.6292114257813	434.267303466797	-1107.720092773438	-360.7366943359376	398.0915832519532	-1141.226196289063	-316.6004943847657	392.9227294921876	-1139.249145507813	-294.6373291015626	309.1908264160157	-1127.623657226563	-354.9271240234376	216.6591491699219	-1147.98681640625	-302.0566406250001	214.5853424072266	-1078.662475585938	-408.9454040527345	192.9005126953126	-1091.757568359375	-218.3482818603516	87.4690628051758	-1110.213256835938	-230.0354156494141	80.97508239746095	-1153.549072265625	-290.6686096191407	79.38894653320314	-1186.7060546875	-322.9709777832032	878.3521118164065	-630.8507690429689	-289.9609680175782	819.9898071289065	-626.8673706054689	-256.9523010253907	819.5850830078127	-632.0708618164064	-322.0354614257813	743.2409667968751	-633.5167236328126	-320.7444763183594	608.3143920898439	-631.7967529296876	-307.7540588378907	585.4307861328126	-761.2703247070314	-283.5971679687501	418.5084838867189	-627.2339477539064	-361.0712280273438	349.6559448242188	-602.1741333007814	-316.0616760253907	341.8610534667969	-603.8494873046876	-299.6523437500001	290.0637207031251	-629.3701782226564	-368.4015808105469	188.4627075195313	-602.9313964843751	-334.5520019531251	185.1653747558594	-682.4625854492189	-427.728729248047	168.2444763183594	-669.8349609375001	-238.4568939208985	59.27339172363283	-632.3265991210939	-250.3882141113282	62.24938964843751	-595.1182250976564	-305.5700073242188	59.70286941528322	-555.0510253906251	nan	nan	nan	
730	3.645	-162.7843170166016	1884.028198242188	-896.9078369140627	-275.6650085449219	1808.562377929688	-937.6798095703127	-325.6264953613282	1768.212890625	-804.7797851562502	-313.4631652832032	1675.495239257813	-864.0865478515627	-369.6271972656251	1351.2705078125	-839.1894531250002	-190.1708984375	1609.388916015625	-844.1939697265627	-175.7542724609375	1662.335205078125	-1008.521057128906	-184.1859436035157	1517.658813476563	-1169.753295898438	-187.204833984375	1470.9765625	-1152.701782226563	-201.4232177734376	1463.399658203125	-1210.244506835938	-224.676010131836	1416.19384765625	-1254.995971679688	-299.5896911621094	1439.076782226563	-1249.3037109375	-359.4064941406251	1228.392822265625	-1066.320068359375	-308.1086425781251	1184.659545898438	-1099.383544921875	-315.5335388183594	1227.603637695313	-1008.951477050781	-236.0688934326172	1663.219482421875	-684.1946411132814	-368.3041687011719	1611.595703125	-543.2324829101564	-353.4035339355469	1569.723022460938	-521.0324707031251	-406.3638610839845	1578.178955078125	-493.9401245117189	-438.4270019531251	1525.738159179688	-450.5259399414064	-500.5090332031251	1512.237060546875	-510.6265869140626	-325.1195068359376	1353.386596679688	-655.5682373046876	-296.2947692871094	1334.208251953125	-587.5941772460939	-286.9113159179688	1268.549560546875	-682.8860473632814	-221.8402709960938	1170.286865234375	-932.3570556640627	-229.8131256103516	1167.2109375	-704.8787231445314	-395.1951293945314	1216.748901367188	-822.0613403320315	-406.3578491210939	1190.927734375	-851.4958496093752	-407.6009826660157	1186.807983398438	-796.772155761719	-369.7822570800782	932.0296020507815	-1040.353515625	-336.0609741210938	857.4805908203127	-1062.615356445313	-290.8706970214844	860.0541992187502	-1067.88916015625	-361.7976684570313	803.7026977539065	-1059.728637695313	-356.7032165527344	670.4518432617189	-1079.360717773438	-339.3659362792969	618.1881103515626	-955.8181762695315	-291.7368469238282	451.8232421875001	-1108.752563476563	-364.7658081054688	413.3977050781251	-1140.177856445313	-320.0975341796876	409.9980468750001	-1139.939086914063	-295.4690551757813	326.5501708984376	-1128.311279296875	-354.2861633300782	230.2724914550782	-1147.584594726563	-299.5880126953126	230.3478088378907	-1078.596801757813	-406.0658569335939	205.6588897705079	-1090.823608398438	-211.5253448486329	102.9275894165039	-1111.782470703125	-222.4073181152344	99.41218566894534	-1157.04296875	-284.7471618652344	95.10011291503908	-1187.244750976563	-324.8286743164063	894.1878662109377	-630.3524169921876	-294.6688842773438	834.1958618164065	-626.3180541992189	-261.4696350097657	833.0085449218752	-630.5732421875001	-330.3088684082032	759.3542480468751	-633.7017822265626	-335.0685119628907	623.8103637695314	-632.0014038085939	-320.0296630859376	600.3593750000001	-762.0626220703126	-288.7314147949219	435.8477783203126	-625.0640869140626	-363.2911071777344	364.3770446777344	-600.6539306640626	-317.6614074707032	358.0757141113282	-601.3242187500001	-299.1188659667969	306.9619140625001	-625.6079711914064	-362.4557189941407	201.5703887939454	-602.0332641601564	-325.0377197265626	202.0008850097657	-680.6871948242189	-418.7327880859376	184.4489135742188	-670.9718017578126	-233.0653991699219	69.45424652099611	-632.9226684570314	-244.9231262207032	71.71489715576173	-595.6125488281251	-301.9344177246094	68.25524902343751	-557.9392700195314	nan	nan	nan	
731	3.65	-164.2469940185547	1895.6494140625	-896.6851806640627	-277.3173828125001	1821.88916015625	-937.4846191406252	-327.7955627441407	1783.174560546875	-804.2788085937502	-316.1898803710938	1688.73779296875	-863.919616699219	-368.3377380371094	1363.789672851563	-839.8354492187502	-192.7975311279297	1623.280639648438	-844.017517089844	-179.6964721679688	1676.440307617188	-1008.350280761719	-186.176513671875	1532.691772460938	-1169.970458984375	-188.5865631103516	1486.039184570313	-1152.807373046875	-202.8838043212891	1478.141235351563	-1210.505615234375	-225.9696807861329	1430.875854492188	-1255.149780273438	-300.9600524902344	1452.580688476563	-1248.98095703125	-357.6340026855469	1240.763427734375	-1066.315063476563	-306.0643005371094	1197.335815429688	-1100.114990234375	-313.0676269531251	1240.524780273438	-1009.419982910156	-239.9069213867188	1676.273315429688	-684.0999755859376	-373.0498657226563	1624.59423828125	-544.5779418945314	-357.8233032226563	1583.209228515625	-521.8536987304689	-411.472137451172	1591.447265625	-495.3086547851564	-444.0697631835939	1539.631591796875	-452.0360412597657	-505.2636718750001	1525.2626953125	-512.7052001953126	-327.0139770507813	1365.601318359375	-653.9641113281251	-299.0959777832032	1347.208618164063	-585.3916015625001	-287.6247558593751	1281.049560546875	-679.6759643554689	-218.1753997802735	1184.538208007813	-933.3640136718752	-226.2339477539063	1182.334838867188	-705.0302734375001	-390.7767944335939	1230.873413085938	-821.7841796875002	-401.3977966308595	1204.95166015625	-850.8410644531252	-402.3655395507814	1200.949096679688	-796.3348388671877	-372.7095642089844	948.2640380859377	-1038.485595703125	-342.3870849609376	872.5474243164065	-1061.707153320313	-297.0266113281251	873.8059692382815	-1068.788940429688	-369.3041076660157	819.200378417969	-1056.32275390625	-366.9546813964844	686.3587646484376	-1078.337036132813	-349.6816406250001	632.9328002929689	-953.3719482421877	-296.1974182128907	468.215057373047	-1108.311889648438	-368.3816223144532	428.5288696289064	-1138.77978515625	-323.5549621582032	425.4569091796876	-1139.450073242188	-297.7388916015626	342.7297668457032	-1127.358642578125	-354.9232482910157	243.982406616211	-1145.6484375	-298.8896484375001	246.1506805419922	-1078.49267578125	-404.742889404297	216.6466522216797	-1088.302734375	-206.670150756836	123.2650299072266	-1112.309692382813	-218.9073944091797	116.8340225219727	-1156.567504882813	-281.2161560058594	110.7326126098633	-1186.298461914063	-327.0296936035157	909.987243652344	-629.7870483398439	-299.8637695312501	847.9566650390627	-626.6446533203126	-267.1643676757813	845.4456787109377	-629.8983154296876	-338.4626770019532	775.2678222656252	-634.1262207031251	-348.4794921875001	639.5585937500001	-631.3185424804689	-332.2512817382813	615.8768310546876	-762.8529663085939	-293.9399414062501	453.9671325683595	-621.2678222656251	-366.4634399414063	379.4545288085938	-599.8756713867189	-320.8869628906251	374.8008422851563	-598.5957031250001	-299.2574157714844	324.8355102539063	-622.3421630859376	-359.1353454589844	215.1191864013672	-601.9409179687501	-318.2571716308594	219.2459716796876	-678.8223266601564	-411.8539428710939	199.1296844482422	-673.6659545898439	-227.6432037353516	81.92749786376955	-634.3054199218751	-239.4412994384766	83.86025238037111	-596.1317138671876	-297.7036132812501	79.51028442382814	-560.9174804687501	nan	nan	nan	
732	3.655	-164.8194122314453	1906.973022460938	-896.5987548828127	-279.0091857910157	1834.586669921875	-937.1956176757815	-330.2963867187501	1797.04443359375	-803.9509277343752	-318.6276550292969	1701.311401367188	-863.687927246094	-366.7789306640626	1376.114624023438	-840.3869628906252	-194.8773193359376	1636.932861328125	-844.041931152344	-183.5462493896485	1690.09228515625	-1008.115112304688	-188.3860778808594	1547.038940429688	-1170.012084960938	-189.491943359375	1500.178100585938	-1153.029418945313	-204.5100555419922	1492.636596679688	-1210.625244140625	-227.2681884765626	1445.1171875	-1255.300415039063	-302.4302978515626	1465.970458984375	-1248.822631835938	-355.7475585937501	1252.560302734375	-1066.57568359375	-305.3273620605469	1209.72119140625	-1100.826904296875	-310.8519592285157	1252.88623046875	-1010.09375	-243.3379211425782	1688.776000976563	-684.0107421875001	-377.2592773437501	1636.9794921875	-545.5062255859376	-362.2870178222657	1596.170654296875	-522.3223876953126	-416.023162841797	1604.062377929688	-496.6903381347657	-448.8741149902345	1552.8271484375	-453.6798400878907	-509.4803466796876	1537.248046875	-514.7407836914064	-329.3773193359376	1377.75341796875	-652.5715332031251	-302.0873413085938	1359.017944335938	-582.9871215820314	-286.5767517089844	1294.026977539063	-676.4478149414064	-214.8280944824219	1197.9931640625	-934.357116699219	-221.6447296142579	1197.819702148438	-705.3995971679689	-386.5912170410157	1245.099731445313	-821.5406494140627	-397.5609741210939	1219.013793945313	-850.5015258789065	-397.4199829101564	1215.207641601563	-795.808288574219	-375.3064575195313	963.1243896484377	-1036.222412109375	-347.5914306640626	887.2064208984377	-1060.46240234375	-302.0549316406251	887.605407714844	-1069.595092773438	-374.8934936523438	834.5563964843752	-1053.260986328125	-371.0211486816407	701.0801391601564	-1076.77392578125	-354.3198852539063	648.3869018554689	-951.9438476562502	-300.3194580078126	483.0134277343751	-1107.475219726563	-372.4060668945313	442.6474914550782	-1137.261108398438	-327.3485107421876	439.9921875000001	-1138.542358398438	-301.4404907226563	357.5733337402344	-1127.367553710938	-356.6984252929688	256.2843017578126	-1143.348266601563	-299.1207885742188	261.6418457031251	-1078.802978515625	-405.0329895019532	226.7592010498047	-1084.793823242188	-203.8751678466797	143.185287475586	-1115.177124023438	-217.1446990966797	136.6321258544922	-1159.357543945313	-279.9512023925782	124.7089920043946	-1185.731811523438	-329.2662963867188	925.5108032226565	-629.4655761718751	-305.1014404296876	861.9934692382815	-625.3691406250001	-271.7175598144532	858.8704833984377	-627.6882934570314	-346.2991333007813	790.9387817382815	-634.7996826171876	-359.9644470214844	655.9609375000001	-630.1451416015626	-342.6438903808594	631.7654418945314	-763.3468017578126	-300.0872192382813	470.6313476562501	-618.1770629882814	-370.9235839843751	394.406219482422	-599.5396118164064	-324.7627868652344	391.3935546875001	-596.3310546875001	-301.0722351074219	342.3126831054688	-618.9420166015626	-358.5462341308594	228.1221160888672	-602.6290893554689	-314.8635864257813	235.1634063720704	-677.6893920898439	-407.9668579101564	213.6809844970704	-677.0496826171876	-221.6218719482422	95.86609649658205	-635.4785156250001	-234.9684753417969	97.25378417968753	-597.8648071289064	-294.8069763183594	90.37921142578126	-565.2459716796876	nan	nan	nan	
